# xmcd
#
# Track frame offsets:
#	150
#	19427
#	55001
#	77938
#	97013
#	112491
#	134396
#	149992
#	172869
#	204747
#	233054
#	271030
#	296176
#	326722
#
# Disc length: 4597 seconds
#
# Revision: 0
# Processed by: cddbd v1.5.2PL0 Copyright (c) Steve Scherf et al.
# Submitted via: EasyCDDAExtractor 16.1.0.1
#
DISCID=e011f30e
DTITLE=Pet Shop Boys - West end girls - part 1
DYEAR=1900
DGENRE=
TTITLE0=West End Girls (Original 7'' version (remastered))
TTITLE1=West End Girls (Original Extended version)
TTITLE2=West End Girls (Original Extended Edit)
TTITLE3=West End Girls (Nouvelle Version (remastered))
TTITLE4=West End Girls (Nouvelle Version Edit)
TTITLE5=West End Girls (Nouvelle Extended Version)
TTITLE6=West End Girls (Remix '86 Single Version)
TTITLE7=West End Girls (Remix '86
TTITLE8=West End Girls (Acid House Mix
TTITLE9=West End Girls (James Brown
TTITLE10=West End Girls (Montreal 12'')
TTITLE11=West End Girls (Montreal Instrumental)
TTITLE12=West End Girls (Montreal Dub)
TTITLE13=West End Girls (Montreal 7'')
EXTD=
EXTT0=
EXTT1=
EXTT2=
EXTT3=
EXTT4=
EXTT5=
EXTT6=
EXTT7=
EXTT8=
EXTT9=
EXTT10=
EXTT11=
EXTT12=
EXTT13=
PLAYORDER=
